<svg xmlns="http://www.w3.org/2000/svg" viewBox="0 0 1080 1080"><defs><style>.cls-1{fill:#a93f55;}.cls-2{fill:#e77a42;}.cls-2,.cls-3,.cls-4,.cls-5,.cls-6,.cls-7,.cls-8,.cls-9{fill-rule:evenodd;}.cls-3{fill:#571902;}.cls-4{fill:#ab5328;}.cls-5{fill:#16515e;}.cls-6{fill:#1fba81;}.cls-7{fill:#3b808f;}.cls-8{fill:#3c7a63;}.cls-9{fill:#e6e6e6;}.cls-10,.cls-13{font-size:130px;font-family:PTSans-CaptionBold, PT Sans Caption;font-weight:700;}.cls-10{fill:#fff;}.cls-11{letter-spacing:-0.05em;}.cls-12{letter-spacing:-0.01em;}</style></defs><g id="Ebene_3" data-name="Ebene 3"><rect class="cls-1" width="1080" height="1084"/></g><g id="Ebene_1" data-name="Ebene 1"><path class="cls-2" d="M629.65,438s-2,11.9,10.63,19.56c-10.63,10.26-26.67,23.67-45.87,20.8s-23.91-17.16-25.92-26.09c2.94.77,2.32.73,2.31-5.66s-4.08-18.36-5.06-24.19-1.1-8.27-2.36-8.52-7-2.66-7.2-12.4,10.9-11.51,11.56-17.35,4.43-17.65,16.93-25.68,19.47-11.06,28.21-10.32,29.2,14.18,31.14,19.47,5.3,29.26,3.32,37.53-5.4,10.81-4.27,16.21-3,16.86-13.42,16.64Z"/><path class="cls-3" d="M566.57,386.84a5.42,5.42,0,0,0,1.17-2.73c.67-5.85,4.43-17.65,16.93-25.68s19.47-11.06,28.21-10.32,29.2,14.18,31.14,19.47,5.3,29.26,3.32,37.53c-1.67,6.93-4.33,9.84-4.49,13.77,0,0-7.5-5.82-7.84-8.33s8.42-23.42-17.88-33.69-36.23,15-43.36,12.46c-2.42-.88-4.93-1.71-7.2-2.48Z"/><path class="cls-4" d="M629.53,442.54c.48,3.92,2.59,9.62,10,14.12-10.25,3.09-25.95,24.53-45.15,21.66s-23.91-17.16-25.92-26.09c2.94.78,2.32-2.23,2.31-5.66a46.12,46.12,0,0,0-1.34-10.19c4.09,6.78,9.62,13.67,16.27,16.47,14.93,6.28,43.8-10.31,43.8-10.31Z"/><path class="cls-2" d="M532.28,853.29s-23.14,34.29-26.17,40.35-13.41,19.9-18.17,21.63-38.51-2.6-46.3-4.33-38.47-15.31-45-15.31-51.52,24.83-68.83,23.11-19-16.87-16-21.21,23.36-29,30.72-30.72,29-3.89,35.48-8.22,15.14-19,28.12-19S420,853,420,857.3s-4.76,12.55,2.16,12.55,16.66-6.71,24.88-9.1,19-2.59,19-5.19,5.84-27.68,12.55-37.63,53.64,35.36,53.64,35.36Z"/><path class="cls-5" d="M402,896.72a21.76,21.76,0,0,0-5.29-1.09c-6.49,0-51.52,24.83-68.83,23.11s-19-16.87-16-21.21,23.36-29,30.72-30.72,29-3.89,35.48-8.22,15.14-19,28.12-19S420,853,420,857.3c0,3.69-3.47,10.22-.18,12.05h0s-20,15.27-17.86,27.37Z"/><path class="cls-6" d="M377,903.24c-2.54,1.09-5.2,2.26-7.94,3.42-3.18-2.66-6-5.88-6.61-9.15a73.93,73.93,0,0,1-.62-16.65s6.85,14,15.17,22.38Zm-16.43,7c-3.61,1.46-7.25,2.85-10.76,4.07-6.38-4.83-12.28-10.23-13.09-14.15-1.85-8.93-.93-14.17-.93-14.17s13.69,18.1,24.78,24.25Z"/><path class="cls-2" d="M489,737.77s-24,10.59-44.57,17.73S412,773.67,398.82,787.09s-41.53,23.58-56.89,32.23-27,30.72-38.3,42.84S266,895.47,260.37,895.47s-24.23-7.35-24.66-11.25-2.6-20.34,1.73-26,64.46-37.2,76.58-51,51.92-66.2,68.36-73.12,25.1-19.47,47.59-39.81,53.65,23.36,59.06,43.49Z"/><path class="cls-5" d="M332.51,826.52c-10.94,10.48-20,26.12-28.88,35.64-11.24,12.11-37.64,33.31-43.26,33.31s-24.23-7.35-24.66-11.25-2.6-20.34,1.73-26,64.46-37.2,76.58-51c0,0-3.75,18.59,18.49,19.31Z"/><path class="cls-7" d="M587.23,723.17s-10,45-23.8,72.69-34.18,70.95-38.51,70.95S489,842.15,481.66,834.37s-10-13.2-9.52-14.71c.16-.58-2-23.73.76-30.68,4.42-11.24,11.59-16.11,12.65-21.46,1.73-8.65,6.92-14.71,7.36-16.88s2.59-12.54,2.59-12.54l-26.83,12.55L446,757.81l.87-8.8s7.43-9.21-5.12-17.91c-17.18-11.9-9.73-31.71-21.75-27a61.37,61.37,0,0,1,5.62-14.7c3.89-6.93,22.07-24.24,29-37.22a190.32,190.32,0,0,0,11.68-28.12s17.31-5.19,24.23-10.39,80.91,73.56,96.7,109.47Z"/><path class="cls-5" d="M472.8,789.26l.1-.28a48.91,48.91,0,0,1,6.08-10.9c1,19.08,17.81,47.47,17.81,47.47s-8.63-6.16-17.57-19.72c-3-4.59-5.05-10.61-6.42-16.57ZM483.48,772a12.73,12.73,0,0,0,2.07-4.44,32.56,32.56,0,0,1,1.72-5.73c5.17,14.42,21.23,38.8,21.23,38.8s-.3-.31-11.71-9.24C491.21,787,486.67,779,483.48,772Z"/><path class="cls-5" d="M587.23,723.17a478.24,478.24,0,0,1-14.14,49.37c-3.32-15.6-9.22-43.33-17.1-58.08-9.86-18.5-46.23-38.22-64.72-40.68C481,672.4,468.78,655.56,460,640.91c3.89-9.12,6.31-16.82,6.31-16.82s17.31-5.19,24.23-10.39,80.91,73.56,96.7,109.47Z"/><path class="cls-2" d="M705.12,466.82s49.14,2.91,78.57,5.5,50.62,12.12,60.57,17.75S867,496.34,875,494.28s20.34.44,25.31,3.25,16,11.68,14.93,14.28-3.25,4.1-2.17,5,8.87,11,6.28,11.89-13-10.17-18.82-13.84-14.28-2.61-16.23-1.74-1.73,6.49-3.67,6.71-18.18,1.51-25.1-2.17-14.28-5.83-27.69-5.83-47.16-4.11-56-7.14-12.12-3.47-18.17-1.51S700,511.81,686.56,509s7.79-39.15,18.56-42.17Z"/><path class="cls-6" d="M296.84,868.9c-1.29,1.2-2.64,2.43-4,3.67-4.68-3.69-9.34-7.92-11.87-11.74-6.32-9.56-4.78-16.5-4.78-16.5s10.43,17,20.68,24.57ZM283.2,880.72c-1.74,1.41-3.47,2.78-5.17,4.08-5.4-3.14-11.58-7.65-14.19-13-5.09-10.47-4.47-14-4.47-14s11.07,17.25,23.83,23Z"/><path class="cls-2" d="M490.08,477.63s-16.41,4-21.38,8.11-14.28,1.94-24.45-4.33-66-39.81-68.14-45.42-19.9-13.85-19.9-13.85l-14.28,21.63s32,30.29,48,44.57,56.24,45.85,64.9,44.56,30.46-5.3,30.46-5.3,35.3-28,4.76-50Z"/><path class="cls-6" d="M699.48,463.78s-32.92-9.54-46.08-8.22-10.79,1.28-12.95.85-5.18-3-5.18-3-23.07,12.51-27,14.89-25.19-.55-27.24-2.39-10.4-13.73-11.16-13.73-21,.54-26.6-.54-27.91-.43-32.89,5.84-15.79,18.17-20.33,20.12.86,16,.86,25.74-5.62,24.23-5.62,24.23,19.25-8.86,22.28-8.86c1.36,0,3.29,1.57,4.94,3.77,2.09-7,4.92-16.09,4.92-16.09v6.48l-1.62,17.31a6.34,6.34,0,0,1,0,1.51c-.64,5.19-15.57,49.32-17.3,59.7s-19.91,23.37-19.91,23.37-1.73,51.49,20.77,55,44.57,19.91,56.25,31.59S585.48,739.4,589,737.24s6-39.38,13.84-55S652.55,590.13,654.28,565s4.54-32.66,6.7-38.72a121.94,121.94,0,0,1,5-12.73c-8.26-2.67-19.57-2.38-19.57-2.38s8-3.25,13.1-3.25,10.82.38,11.18.4h0c3.68,0,25.1,5.41,26.18,2.38s1.29-18,3-24.23,5.19-17.53,5.19-19.69-5.64-3-5.64-3Z"/><path class="cls-8" d="M639.54,456.14a19.33,19.33,0,0,1-4.27-2.7s-23.07,12.51-27,14.89-25.19-.55-27.24-2.39-10.4-13.73-11.16-13.73c-.37,0-5.28.12-10.89.13l-26.5,3.91s13.86,3.7,15.41,3.7,23.28,1,23.28,1-6,3.63-8.49,3.63-38.22,6.48-38.22,6.48,12.33-1.24,27.74-1.24,34.52,2.93,34.52,2.93a74.38,74.38,0,0,0-10.48.93c-5.86.92-22,7.4-22,7.4s29.73-2.31,42.21-4.79,14.8-5.55,28.21-12.33c5.54-2.8,10.72-5.54,14.88-7.81Z"/><path class="cls-8" d="M514.06,538.51c-1,3.41-2.34,7.76-3.82,12.52,7.25-2.53,21.14-7.83,26.28-13a76.83,76.83,0,0,0,12-16.65s-18.73,9.3-34.48,17.09ZM502.5,576.25c-2,6.65-3.5,12.25-4,15.17a15.38,15.38,0,0,1-1.53,4.34,142.44,142.44,0,0,0,14.87-7.46C534.05,575.36,563,549.47,563,549.47s-29.89,16.95-47.46,22.81c-4.84,1.61-9.23,2.92-13.06,4Z"/><path class="cls-8" d="M596.06,705.16c1.75-8.67,3.9-17.2,6.73-22.87-4-20.65-33-76.13-33-76.13s13,40.68,18.49,66c2.33,10.62,5.21,22.66,7.76,33Zm13.21-35.38c2.63-5,5.75-11,9.12-17.62-8.59-34.27-22.21-71.43-20.22-66.95,2.46,5.54,9.86,41.29,10.47,55.47.22,5.06.44,16.49.63,29.1Zm20.77-41q1.76-3.6,3.46-7.22l-3.28-9.88-.18,17.1Z"/><path class="cls-7" d="M326.62,364.21a43.15,43.15,0,1,1-43.15,43.14,43.14,43.14,0,0,1,43.15-43.14Z"/><path class="cls-6" d="M563,372.18s20.95,21,41.6,31.75,45.92,18.18,45.92,18.18-30.81-1.84-51.46-10.78S563,372.18,563,372.18Z"/><path class="cls-9" d="M529.55,1006c102.12,0,184.91,8.29,184.91,18.49S631.67,1043,529.55,1043s-184.91-8.28-184.91-18.49S427.43,1006,529.55,1006Z"/></g><g id="Ebene_2" data-name="Ebene 2"><text class="cls-10" transform="translate(69 166.28)"><tspan class="cls-11">R</tspan><tspan x="78" y="0">esults </tspan><tspan class="cls-12" x="496.46" y="0">f</tspan><tspan x="543.78" y="0">or</tspan></text><text class="cls-13" transform="translate(193.15 288.91)">Handball4All</text></g></svg>